<?xml version="1.0" standalone="no"?>
<!DOCTYPE svg PUBLIC "-//W3C//DTD SVG 20010904//EN"
 "http://www.w3.org/TR/2001/REC-SVG-20010904/DTD/svg10.dtd">
<svg version="1.0" xmlns="http://www.w3.org/2000/svg"
 width="1024.000000pt" height="1024.000000pt" viewBox="0 0 1024.000000 1024.000000"
 preserveAspectRatio="xMidYMid meet">

<g transform="translate(0.000000,1024.000000) scale(0.100000,-0.100000)"
fill="#000000" stroke="none">
<path d="M4904 8889 c-14 -6 -10 -8 16 -8 49 -1 218 -43 325 -81 214 -76 472
-234 631 -386 61 -59 94 -84 57 -43 -34 36 -40 49 -23 49 6 0 10 -4 10 -9 0
-5 23 -31 50 -59 28 -28 50 -57 50 -65 0 -8 11 -23 25 -33 14 -10 25 -23 25
-27 0 -5 15 -27 34 -50 52 -65 173 -270 221 -376 93 -209 143 -425 153 -666 3
-88 8 -150 10 -137 2 12 7 22 10 22 8 0 40 -102 49 -155 3 -19 9 -35 13 -35 4
0 11 -19 14 -42 4 -24 11 -72 16 -108 6 -36 12 -87 15 -115 3 -27 10 -81 15
-118 5 -38 6 -76 3 -84 -3 -8 -1 -24 5 -36 10 -21 15 -40 29 -112 3 -16 12
-35 19 -43 8 -7 14 -31 14 -52 0 -24 5 -40 15 -44 9 -3 15 -19 15 -41 0 -19 5
-35 10 -35 6 0 10 -38 10 -92 0 -113 10 -199 21 -192 5 3 9 0 9 -5 0 -6 -6
-11 -12 -11 -10 0 -9 -3 1 -9 9 -6 10 -11 2 -15 -20 -13 -13 -74 12 -92 12 -9
15 -14 7 -12 -12 5 -15 -6 -15 -56 -1 -64 -10 -195 -21 -285 -4 -35 -9 -48
-15 -40 -6 10 -9 8 -9 -9 0 -13 -12 -39 -26 -58 -15 -19 -24 -34 -21 -34 11 0
134 165 199 265 177 275 284 539 342 840 58 301 58 445 2 750 -72 390 -181
632 -441 981 -199 266 -415 464 -675 616 -142 83 -362 191 -473 232 -181 68
-484 126 -571 111 -17 -3 -54 -2 -82 3 -28 5 -59 5 -70 1z m183 -15 c-3 -3
-12 -4 -19 -1 -8 3 -5 6 6 6 11 1 17 -2 13 -5z"/>
<path d="M4551 8883 l-33 -4 33 -18 c19 -9 33 -22 32 -29 -2 -7 3 -12 10 -12
15 0 120 -106 157 -159 13 -19 -19 10 -72 64 -52 53 -96 100 -96 103 -1 15
-43 25 -121 29 l-86 4 40 -22 c57 -30 93 -66 123 -123 67 -124 125 -244 134
-276 26 -96 37 -186 32 -258 -8 -111 -10 -125 -17 -142 -6 -15 -37 -134 -41
-156 -1 -7 -7 -18 -13 -25 -11 -15 -27 -69 -25 -81 1 -5 -2 -8 -8 -8 -9 0 -44
-68 -42 -82 1 -3 -5 -12 -13 -18 -8 -7 -15 -19 -15 -26 0 -8 -4 -14 -10 -14
-5 0 -10 -9 -10 -20 0 -11 -4 -20 -8 -20 -9 0 -48 -62 -44 -72 1 -4 -6 -4 -15
-1 -11 4 -14 3 -9 -6 5 -8 1 -14 -13 -18 -12 -3 -21 -9 -21 -14 0 -5 -23 -31
-50 -58 -30 -29 -45 -51 -38 -53 7 -3 2 -7 -10 -10 -14 -4 -20 -2 -15 4 3 7 1
8 -5 4 -7 -4 -12 -14 -12 -22 0 -8 -4 -12 -10 -9 -5 3 -10 1 -10 -5 0 -6 -4
-9 -9 -5 -6 3 -8 -4 -6 -16 3 -17 0 -20 -16 -16 -14 4 -19 1 -17 -10 2 -9 -5
-17 -14 -18 -11 -2 -15 2 -11 13 5 12 1 11 -14 -4 -11 -10 -18 -25 -15 -31 2
-7 -1 -13 -7 -13 -6 0 -11 7 -11 15 0 16 -16 21 -22 6 -1 -5 -16 -13 -32 -17
-22 -5 -27 -4 -24 7 3 8 12 13 19 11 11 -3 12 -1 1 10 -11 11 -14 10 -21 -1
-6 -9 -18 -11 -40 -6 -32 7 -48 22 -36 33 4 4 10 1 12 -5 7 -21 22 -15 20 7
-1 11 -6 19 -13 16 -6 -2 -18 3 -27 12 -30 32 -48 43 -60 39 -7 -2 0 -10 16
-17 15 -7 27 -17 27 -21 0 -11 -51 17 -61 32 -6 10 -11 10 -25 -2 -16 -13 -16
-12 -4 11 7 14 9 22 5 18 -4 -4 -16 -3 -26 2 -14 8 -21 6 -29 -10 -11 -20 -30
-19 -30 1 0 6 6 7 13 3 8 -5 8 -2 -2 9 -14 18 -22 22 -20 10 3 -20 -2 -24 -16
-13 -13 11 -14 10 -8 -6 5 -15 4 -17 -8 -8 -23 19 -58 6 -127 -45 -64 -48
-142 -96 -142 -88 0 2 24 20 54 40 29 19 98 73 152 119 55 46 124 102 155 125
84 62 283 278 398 432 64 84 141 229 173 323 29 87 31 102 32 238 0 112 -4
155 -17 188 -18 48 -64 112 -80 112 -6 0 -18 7 -28 15 -19 18 -69 11 -69 -9 0
-6 12 -45 26 -86 14 -41 29 -97 34 -123 12 -60 -3 -173 -28 -219 -10 -18 -27
-55 -37 -83 -10 -27 -22 -54 -27 -59 -4 -6 -8 -17 -8 -26 0 -10 -9 -27 -20
-40 -11 -13 -20 -27 -20 -31 0 -4 -6 -14 -14 -21 -7 -8 -21 -29 -30 -47 -18
-34 -49 -74 -78 -100 -10 -8 -18 -22 -18 -31 0 -13 -1 -13 -10 0 -7 11 -10 12
-10 2 0 -8 -17 -31 -39 -52 -29 -29 -41 -36 -50 -27 -9 9 -11 8 -6 -4 4 -10 1
-20 -6 -25 -8 -5 -10 -3 -4 7 7 11 6 12 -6 3 -8 -6 -22 -10 -32 -9 -9 2 -15
-1 -11 -6 3 -5 9 -7 14 -4 5 3 12 0 16 -6 4 -8 3 -9 -4 -5 -7 4 -12 3 -12 -2
0 -10 -30 -9 -48 2 -15 9 -12 -15 3 -26 6 -5 5 -8 -3 -8 -7 0 -10 -5 -6 -12 4
-7 3 -8 -5 -4 -6 4 -9 11 -6 16 3 5 1 11 -5 15 -6 4 -7 11 -4 17 4 7 2 8 -5 4
-6 -4 -9 -12 -6 -17 4 -5 1 -9 -4 -9 -6 0 -11 4 -11 9 0 5 -10 7 -22 3 -14 -3
-19 -2 -14 6 4 7 3 12 -3 12 -5 0 -12 -6 -14 -12 -3 -8 -6 -6 -6 5 -1 15 -12
22 -34 18 -5 -1 -5 4 -1 10 5 9 2 10 -10 6 -10 -4 -15 -3 -11 3 7 12 -7 13
-20 2 -6 -4 22 21 60 57 138 128 201 199 293 328 97 139 144 227 168 315 16
63 18 156 4 194 l-11 27 -25 -34 c-14 -19 -28 -46 -31 -61 -3 -16 -9 -28 -14
-28 -5 0 -9 -6 -9 -12 -1 -7 -14 -29 -30 -48 -17 -19 -30 -40 -30 -47 0 -6 -9
-18 -20 -26 -11 -8 -17 -17 -13 -20 3 -4 -8 -20 -25 -36 -16 -16 -28 -32 -25
-35 3 -3 -6 -11 -21 -17 -15 -7 -22 -15 -17 -19 6 -3 2 -11 -9 -18 -14 -8 -21
-9 -26 0 -4 7 -3 8 4 4 8 -5 10 -1 5 9 -4 13 -8 14 -14 4 -4 -7 -5 -17 -3 -21
5 -7 -10 -12 -29 -9 -4 1 -10 -6 -13 -14 -4 -8 -10 -15 -16 -15 -5 0 -6 5 -2
12 5 7 2 9 -9 5 -9 -3 -18 -1 -21 6 -3 8 -5 8 -5 -2 -1 -11 -4 -11 -16 -1 -12
10 -15 10 -15 -4 0 -9 4 -16 10 -16 5 0 14 -9 20 -20 9 -16 8 -18 -5 -14 -8 3
-12 10 -9 15 5 8 -10 13 -30 10 -5 -1 -6 5 -3 13 4 10 1 13 -9 9 -7 -3 -14
-13 -15 -22 -1 -16 -1 -15 -15 27 -2 7 -9 10 -15 6 -6 -4 -7 -9 -2 -13 5 -3 1
-14 -9 -24 -18 -17 -18 -16 -12 10 3 16 13 34 22 41 9 6 11 12 6 12 -6 0 -21
-12 -33 -26 -22 -25 -44 -27 -23 -2 8 10 4 13 -16 14 -15 1 -21 -1 -14 -3 6
-3 12 -11 12 -19 0 -9 -6 -11 -17 -7 -16 6 -16 4 -5 -9 11 -14 10 -16 -6 -11
-13 3 -18 11 -15 22 3 11 -2 21 -12 25 -13 5 -16 2 -11 -10 6 -15 4 -15 -11
-3 -11 9 -14 10 -9 2 4 -7 2 -21 -4 -30 -8 -12 -10 -13 -7 -3 2 8 0 24 -5 35
-8 18 -8 18 -4 -2 2 -13 0 -26 -5 -29 -5 -3 -9 2 -9 10 0 22 -39 41 -53 27
-15 -15 -30 -14 -21 2 6 10 4 10 -7 0 -7 -7 -28 -13 -46 -13 -20 0 -36 -7 -42
-17 -8 -14 -10 -15 -11 -3 0 13 -1 13 -10 0 -6 -10 -10 -11 -10 -2 0 6 -5 12
-11 12 -6 0 -8 -7 -5 -16 5 -14 4 -15 -9 -4 -12 10 -15 10 -15 -4 0 -10 -4
-15 -8 -12 -8 5 -121 -43 -143 -61 -8 -6 -23 -13 -34 -15 -11 -1 -24 -7 -30
-11 -5 -5 -27 -18 -47 -30 -231 -135 -558 -425 -752 -667 -86 -107 -246 -331
-246 -344 0 -3 -13 -25 -29 -48 -91 -136 -184 -311 -280 -523 -10 -22 -26 -62
-34 -90 -43 -135 -79 -259 -101 -348 -14 -53 -27 -100 -29 -105 -6 -8 -54
-242 -61 -292 -3 -19 -12 -73 -20 -120 -8 -47 -17 -128 -21 -180 -3 -52 -8
-102 -10 -110 -11 -43 -15 -350 -6 -445 6 -60 15 -177 21 -260 9 -124 15 -157
35 -195 25 -48 28 -62 54 -245 11 -74 34 -141 54 -156 5 -3 12 -21 17 -40 22
-90 43 -160 66 -224 41 -113 75 -198 89 -225 18 -34 65 -160 60 -160 -9 0 58
-137 109 -224 74 -126 144 -218 158 -210 7 5 9 2 6 -8 -4 -9 10 -38 33 -69 21
-30 53 -74 71 -99 72 -101 148 -191 251 -295 93 -94 101 -101 58 -45 -59 75
-178 311 -215 425 -32 100 -80 302 -100 421 -34 195 -38 483 -10 653 14 90 77
388 84 401 4 8 24 62 45 120 136 380 454 824 785 1096 211 174 466 331 791
488 159 76 467 205 564 236 204 65 684 285 815 373 161 109 251 190 408 367
71 80 104 127 137 195 68 140 111 269 135 400 12 66 25 138 29 160 l9 40 1
-37 c1 -38 -29 -228 -54 -342 -30 -130 -162 -410 -224 -473 -23 -23 -51 -62
-61 -86 -11 -25 -27 -50 -36 -58 -23 -19 -36 -58 -25 -77 5 -9 5 -27 -1 -43
-7 -20 -5 -40 7 -75 20 -59 32 -80 41 -74 9 6 21 -16 28 -52 3 -14 17 -40 31
-56 14 -17 25 -39 25 -51 0 -12 6 -21 15 -21 9 0 15 -9 15 -24 0 -32 10 -56
22 -56 5 0 26 -19 47 -42 l38 -41 54 18 c30 11 59 25 65 32 6 7 16 13 23 13 6
0 11 5 11 10 0 6 7 10 15 10 9 0 18 7 21 15 4 8 12 15 19 15 7 0 30 21 51 46
22 25 57 67 80 92 22 26 57 74 77 107 35 58 107 218 107 240 0 5 7 23 15 38
32 61 62 206 70 335 12 178 -49 430 -154 647 -109 222 -353 512 -566 672 -175
131 -465 274 -635 312 -156 35 -396 57 -489 44z m187 -10 c-10 -2 -26 -2 -35
0 -10 3 -2 5 17 5 19 0 27 -2 18 -5z m29 -49 c-3 -3 -12 -4 -19 -1 -8 3 -5 6
6 6 11 1 17 -2 13 -5z m50 -10 c-3 -3 -12 -4 -19 -1 -8 3 -5 6 6 6 11 1 17 -2
13 -5z m128 -54 c63 -32 136 -105 200 -200 27 -41 59 -82 70 -92 11 -9 32 -40
45 -70 14 -29 28 -55 31 -58 3 -3 32 -34 64 -70 53 -60 81 -104 77 -122 -1 -5
2 -8 6 -8 5 0 14 -18 21 -40 6 -22 16 -40 21 -40 5 0 9 -12 10 -27 1 -70 3
-83 10 -83 4 0 11 -19 15 -42 l8 -43 8 35 c8 31 2 118 -16 242 -4 27 -2 25 10
-12 9 -25 20 -87 25 -139 24 -257 -71 -553 -260 -811 -49 -66 -241 -259 -340
-341 -107 -88 -273 -200 -413 -278 -129 -71 -345 -179 -389 -194 -41 -14 -12
5 72 49 54 27 90 52 90 61 0 13 3 13 15 3 9 -8 15 -9 15 -2 0 6 -4 14 -10 17
-5 3 -9 14 -9 23 1 15 2 15 6 0 4 -14 8 -16 24 -7 11 5 17 14 14 19 -3 5 -1
11 4 15 6 3 8 -6 6 -22 -2 -16 -2 -22 1 -15 3 6 14 12 25 12 20 0 26 24 9 35
-6 4 -7 -1 -3 -12 5 -14 3 -15 -7 -6 -17 15 -2 36 21 30 11 -3 19 -1 19 4 0 5
-5 9 -11 9 -5 0 -7 5 -3 12 5 7 2 9 -9 5 -8 -3 -20 0 -26 7 -12 14 -5 46 9 46
4 0 10 9 13 21 3 12 10 18 16 14 6 -3 9 -10 6 -15 -3 -5 -1 -11 4 -14 5 -3 7
7 6 23 -2 21 1 28 11 24 8 -3 14 0 14 7 0 6 5 8 13 4 7 -5 6 0 -3 11 -14 17
-13 18 3 12 10 -4 16 -3 12 3 -5 8 33 38 229 182 81 60 195 183 283 307 203
287 308 619 283 893 -10 108 -36 191 -106 333 -70 144 -124 211 -227 281 -88
60 -89 63 -12 24z m-84 -297 c27 -60 58 -126 69 -148 25 -55 40 -113 40 -158
0 -21 5 -48 11 -59 14 -26 21 -236 8 -260 -6 -11 -5 -19 2 -24 8 -4 7 -9 -2
-15 -11 -7 -11 -9 1 -9 10 0 11 -3 4 -8 -7 -4 -14 -27 -17 -52 -3 -25 -6 -47
-7 -50 0 -3 -5 2 -11 10 -8 12 -9 7 -6 -17 2 -18 0 -33 -5 -33 -4 0 -8 -9 -8
-20 0 -11 -7 -23 -15 -26 -9 -4 -13 -15 -11 -30 3 -13 0 -24 -6 -24 -6 0 -8
-3 -5 -6 3 -4 2 -15 -3 -24 -5 -10 -11 -32 -12 -49 -1 -17 -8 -31 -15 -31 -7
0 -13 -3 -14 -7 -4 -50 -13 -74 -39 -110 -16 -24 -30 -50 -30 -58 0 -8 -7 -15
-16 -15 -8 0 -13 -4 -10 -9 3 -4 -3 -16 -14 -26 -11 -10 -20 -25 -20 -34 0 -9
-9 -22 -20 -29 -11 -7 -20 -19 -20 -27 0 -8 -4 -16 -10 -16 -5 -1 -14 -2 -19
-3 -5 0 -13 -4 -17 -8 -3 -4 3 -6 14 -3 15 2 19 0 15 -11 -3 -7 -9 -12 -13 -9
-5 3 -18 -7 -29 -22 -12 -16 -18 -21 -15 -12 3 10 0 20 -7 25 -8 4 -10 3 -5
-4 9 -15 -11 -52 -27 -52 -7 0 -19 -9 -27 -20 -11 -16 -17 -17 -29 -7 -14 10
-14 10 -3 -5 18 -23 8 -36 -23 -31 -16 4 -27 0 -31 -10 -3 -9 -18 -23 -32 -32
l-27 -16 23 20 c24 21 22 41 -3 41 -9 0 -12 -6 -8 -17 6 -17 5 -17 -14 0 -21
18 -22 18 -32 0 -9 -17 -10 -17 -25 2 -14 19 -15 18 -6 -12 10 -39 4 -44 -10
-7 -6 15 -16 24 -23 21 -8 -3 -14 1 -14 9 0 7 3 11 7 9 3 -2 7 6 7 18 2 17 0
19 -7 7 -5 -8 -10 -11 -10 -5 0 5 -5 4 -12 -3 -19 -19 -30 -14 -23 11 3 12 3
18 -2 12 -11 -13 -43 -18 -43 -7 0 6 -7 12 -14 15 -10 4 -13 1 -9 -9 4 -11 -1
-14 -21 -10 -14 3 -26 0 -26 -5 0 -5 -7 -9 -16 -9 -8 0 -12 -5 -9 -10 4 -6 3
-10 -2 -9 -9 2 -45 -12 -53 -20 -3 -3 -13 -10 -22 -16 -10 -5 -73 -47 -140
-93 -143 -96 -127 -83 66 59 173 126 307 242 457 395 142 147 156 165 265 344
106 176 126 221 160 352 50 198 42 417 -21 556 -13 28 -22 52 -19 52 2 0 27
-48 55 -107z m-1441 -103 c0 -5 -2 -10 -4 -10 -3 0 -8 5 -11 10 -3 6 -1 10 4
10 6 0 11 -4 11 -10z m2079 -140 c0 -8 -7 1 -14 20 -18 46 -17 64 0 25 8 -16
14 -37 14 -45z m408 -347 c-3 -10 -5 -2 -5 17 0 19 2 27 5 18 2 -10 2 -26 0
-35z m-2132 -93 c3 -5 1 -10 -4 -10 -6 0 -11 5 -11 10 0 6 2 10 4 10 3 0 8 -4
11 -10z m1105 -370 c0 -5 -5 -10 -11 -10 -5 0 -7 5 -4 10 3 6 8 10 11 10 2 0
4 -4 4 -10z m-910 -111 c0 -13 -39 -17 -49 -5 -8 10 -3 13 19 13 17 0 30 -4
30 -8z m-19 -32 c-6 -8 -7 -18 -3 -22 4 -5 1 -5 -6 -1 -10 6 -10 11 -1 22 6 8
14 14 16 14 3 0 0 -6 -6 -13z m64 -47 c-3 -5 -12 -10 -18 -10 -7 0 -6 4 3 10
19 12 23 12 15 0z m-245 -494 c0 -2 -8 -10 -17 -17 -16 -13 -17 -12 -4 4 13
16 21 21 21 13z m620 -148 c0 -4 -6 -10 -12 -14 -7 -4 -10 -3 -5 1 4 5 -1 17
-10 28 -18 19 -17 19 5 6 12 -8 22 -17 22 -21z m-35 -18 c3 -5 1 -10 -4 -10
-6 0 -11 5 -11 10 0 6 2 10 4 10 3 0 8 -4 11 -10z m-245 -215 c-6 -8 -36 -23
-66 -35 -30 -11 -73 -29 -94 -40 -22 -11 -43 -20 -47 -19 -7 1 205 107 216
108 2 1 -2 -6 -9 -14z m-2269 -658 c-10 -9 -11 -8 -5 6 3 10 9 15 12 12 3 -3
0 -11 -7 -18z m-70 -164 c-12 -20 -14 -14 -5 12 4 9 9 14 11 11 3 -2 0 -13 -6
-23z m-49 -128 c-9 -26 -18 -42 -20 -37 -3 9 26 82 33 82 2 0 -4 -20 -13 -45z
m173 -1030 c-4 -25 -9 -44 -12 -41 -2 2 -1 25 2 51 4 25 9 44 12 41 2 -2 1
-25 -2 -51z m-27 -830 c0 -16 -2 -15 -8 5 -4 14 -8 36 -8 50 0 22 1 22 8 -5 4
-16 8 -39 8 -50z m9 -57 c-3 -8 -6 -5 -6 6 -1 11 2 17 5 13 3 -3 4 -12 1 -19z"/>
<path d="M4485 6630 c3 -5 8 -10 11 -10 2 0 4 5 4 10 0 6 -5 10 -11 10 -5 0
-7 -4 -4 -10z"/>
<path d="M4395 6620 c4 -6 11 -8 16 -5 14 9 11 15 -7 15 -8 0 -12 -5 -9 -10z"/>
<path d="M3659 7883 c-13 -17 -13 -17 6 -3 11 8 22 16 24 17 2 2 0 3 -6 3 -6
0 -17 -8 -24 -17z"/>
<path d="M3855 7409 c-4 -6 -5 -12 -2 -15 2 -3 7 2 10 11 7 17 1 20 -8 4z"/>
<path d="M8047 7345 c3 -16 14 -49 24 -73 10 -23 19 -46 19 -50 0 -4 9 -34 19
-67 18 -56 20 -80 12 -190 -4 -63 -12 -35 -73 237 -12 59 -28 55 -18 -4 4 -24
13 -77 20 -118 6 -41 16 -89 21 -106 5 -16 11 -59 14 -95 4 -60 4 -61 -5 -19
-6 25 -15 70 -21 100 -37 189 -73 305 -90 294 -5 -3 -9 -10 -9 -16 0 -6 3 -8
7 -4 4 4 18 -46 30 -111 18 -90 24 -165 28 -318 2 -110 9 -225 15 -255 11 -57
16 -317 6 -327 -3 -4 -6 48 -6 114 0 144 -9 221 -22 201 -8 -10 -9 -9 -4 4 7
23 -14 211 -25 222 -5 6 -9 21 -9 35 -1 34 -38 212 -39 186 0 -11 6 -63 14
-115 8 -52 19 -129 25 -170 6 -41 15 -105 20 -142 12 -79 12 -414 1 -478 -6
-30 -9 33 -11 190 l-3 235 -7 -186 c-8 -206 -28 -447 -40 -488 -8 -26 -10 -10
-14 116 -1 17 -4 35 -8 39 -4 3 -7 -6 -7 -22 1 -16 -1 -78 -4 -137 -4 -80 -10
-112 -21 -120 -14 -11 -46 -97 -60 -164 -4 -18 -15 -33 -26 -36 -11 -3 -32
-31 -50 -71 -34 -71 -67 -105 -83 -83 -5 7 -6 4 -2 -9 6 -24 -15 -47 -41 -42
-11 2 -24 -9 -36 -32 -10 -19 -30 -45 -44 -57 -13 -12 -24 -31 -24 -43 0 -11
-6 -20 -13 -20 -8 0 -22 -19 -32 -42 -11 -24 -34 -64 -52 -89 -18 -26 -33 -52
-33 -58 0 -6 -7 -11 -16 -11 -8 0 -12 -4 -9 -10 3 -5 1 -11 -4 -11 -6 -1 -17
-2 -23 -3 -7 0 -17 -16 -23 -34 -6 -22 -14 -31 -23 -27 -19 7 -42 -13 -35 -31
4 -10 0 -12 -11 -8 -9 3 -16 2 -16 -4 0 -5 -9 -12 -20 -15 -11 -3 -20 -12 -20
-20 0 -22 39 -10 71 22 35 35 71 61 84 61 5 0 3 5 -5 10 -12 7 -12 10 -1 10 7
0 27 11 43 25 43 37 58 18 16 -19 -20 -17 -52 -45 -72 -63 -20 -17 -36 -39
-36 -48 0 -10 -5 -15 -14 -12 -8 3 -18 -5 -25 -19 -8 -19 -8 -24 4 -24 8 0 19
9 25 20 6 11 16 20 23 20 7 0 30 17 52 38 22 20 49 44 60 52 19 14 19 14 5 -5
-8 -11 -41 -48 -73 -81 -61 -65 -123 -144 -112 -144 3 0 17 12 30 26 21 23 68
54 81 54 3 0 2 -11 -2 -25 -5 -21 -3 -25 14 -25 26 0 40 -20 15 -21 -11 0 -13
-3 -5 -6 6 -2 9 -9 6 -14 -3 -6 11 -1 31 10 38 20 95 71 153 134 19 20 37 37
41 37 4 0 13 12 19 26 7 15 17 22 24 18 7 -4 8 -3 4 4 -8 13 61 118 75 114 5
-1 9 4 9 11 0 7 30 44 66 83 55 58 63 63 47 33 -50 -99 -175 -261 -277 -361
-205 -202 -512 -420 -767 -545 -144 -71 -462 -216 -534 -243 -33 -13 -90 -38
-128 -57 -37 -18 -111 -51 -165 -72 -162 -65 -264 -110 -281 -124 -34 -30
-222 -147 -216 -135 4 7 -2 3 -13 -9 -11 -12 -22 -19 -26 -16 -8 8 -256 -244
-313 -318 -23 -30 -66 -95 -94 -145 -122 -212 -178 -399 -186 -624 -13 -363
75 -628 280 -841 58 -61 240 -177 324 -206 75 -26 87 -27 275 -28 108 0 199 3
202 6 4 3 -9 23 -28 44 -73 79 -132 226 -149 373 -30 255 59 547 248 817 108
153 316 370 520 540 213 178 272 223 455 345 141 94 300 206 310 218 9 10 -74
-41 -176 -109 -56 -36 -127 -76 -158 -88 -31 -11 -87 -37 -124 -56 -37 -19
-188 -94 -337 -166 -295 -145 -349 -178 -535 -326 -173 -139 -270 -250 -424
-487 -102 -157 -155 -302 -176 -484 -12 -105 -7 -160 27 -265 21 -68 9 -70
-16 -3 -25 69 -44 215 -36 281 10 79 55 243 88 320 16 39 30 80 31 92 0 11 4
19 7 17 9 -5 39 42 38 58 0 7 -4 4 -9 -7 -10 -23 -13 -5 -4 19 3 9 11 13 17 9
6 -3 7 -1 3 5 -8 13 51 142 65 142 5 0 9 8 9 18 0 11 -3 13 -8 6 -5 -8 -11 -7
-22 4 -13 14 -13 15 1 10 23 -9 39 4 41 33 1 14 7 26 13 26 5 1 28 6 50 12 34
9 35 10 9 8 -22 -2 -31 1 -30 11 3 18 27 32 40 24 6 -3 0 -9 -14 -13 l-25 -7
28 -1 c15 -1 27 3 27 8 0 5 6 11 13 14 6 2 4 3 -5 2 -10 -2 -22 3 -28 10 -9
11 -5 12 19 9 29 -5 31 -3 30 23 l-1 28 -8 -25 c-6 -19 -7 -13 -6 24 1 29 7
51 14 54 7 2 12 10 12 18 0 8 10 15 23 15 18 1 19 2 4 6 -11 3 -29 -5 -43 -18
-19 -18 -23 -19 -18 -6 3 9 11 17 16 17 6 0 8 11 6 25 -6 29 -5 30 16 9 9 -8
16 -11 16 -5 0 5 -5 13 -10 16 -6 4 -8 16 -4 28 6 22 6 22 -10 2 l-15 -20 -1
20 c0 22 13 47 24 46 24 -3 28 0 16 14 -7 9 -19 14 -26 11 -7 -3 -15 1 -17 9
-4 9 2 12 18 11 21 -3 22 -1 14 22 -7 18 -6 28 2 33 10 6 10 11 0 23 -11 13
-10 17 4 22 13 5 14 9 3 15 -10 7 -11 9 0 9 7 0 10 5 7 10 -3 6 -1 10 4 10 6
0 11 5 11 11 0 5 -4 8 -9 4 -5 -3 -13 -1 -16 5 -4 6 -3 10 2 9 30 -5 44 2 38
20 -3 11 1 25 10 34 8 9 15 22 15 29 0 10 3 9 11 -2 9 -12 10 -11 6 8 -3 12
-2 20 3 17 11 -7 22 24 13 37 -3 7 -1 8 5 4 8 -4 12 0 12 11 0 15 2 16 10 3 8
-12 10 -11 10 6 0 12 12 30 27 40 15 10 53 44 83 73 30 30 58 54 62 53 4 -1
10 7 13 18 4 11 10 18 14 16 4 -3 29 15 56 39 28 25 53 45 57 45 4 0 19 11 34
25 15 14 31 25 36 25 11 0 72 42 76 53 2 4 8 7 14 7 5 0 25 18 45 39 19 22 48
45 64 51 16 7 28 15 25 17 -2 2 -21 -3 -42 -12 -22 -9 -34 -12 -29 -6 6 5 53
28 105 51 179 78 485 236 640 330 251 152 347 228 497 395 164 184 184 208
179 221 -6 15 58 119 73 119 12 0 81 103 81 122 0 7 13 35 29 62 17 28 33 67
37 88 4 21 20 67 35 103 48 113 119 358 134 463 8 56 25 161 37 232 30 182 30
400 0 509 -8 28 -22 103 -33 166 -10 63 -28 147 -40 185 -42 144 -149 417
-132 340z m110 -582 c-3 -10 -5 -2 -5 17 0 19 2 27 5 18 2 -10 2 -26 0 -35z
m-60 -30 c-2 -16 -4 -5 -4 22 0 28 2 40 4 28 2 -13 2 -35 0 -50z m-40 15 c-3
-7 -5 -2 -5 12 0 14 2 19 5 13 2 -7 2 -19 0 -25z m10 -40 c-3 -8 -6 -5 -6 6
-1 11 2 17 5 13 3 -3 4 -12 1 -19z m10 -80 c-2 -13 -4 -5 -4 17 -1 22 1 32 4
23 2 -10 2 -28 0 -40z m20 -245 c-3 -10 -5 -2 -5 17 0 19 2 27 5 18 2 -10 2
-26 0 -35z m0 -80 c-3 -10 -5 -4 -5 12 0 17 2 24 5 18 2 -7 2 -21 0 -30z
m-554 -1178 c-8 -25 -21 -45 -29 -45 -18 0 -18 14 0 29 8 7 18 26 21 42 4 16
10 27 15 24 5 -3 2 -26 -7 -50z m-53 -85 c0 -5 -5 -10 -11 -10 -5 0 -7 5 -4
10 3 6 8 10 11 10 2 0 4 -4 4 -10z m-57 -75 c-3 -9 -8 -14 -10 -11 -3 3 -2 9
2 15 9 16 15 13 8 -4z m37 -59 c0 -3 -4 -8 -10 -11 -5 -3 -10 -1 -10 4 0 6 5
11 10 11 6 0 10 -2 10 -4z m-1762 -1751 c-3 -3 -9 2 -12 12 -6 14 -5 15 5 6 7
-7 10 -15 7 -18z m-8 -65 c0 -5 -2 -10 -4 -10 -3 0 -8 5 -11 10 -3 6 -1 10 4
10 6 0 11 -4 11 -10z m-10 -70 c0 -5 -5 -10 -11 -10 -5 0 -7 5 -4 10 3 6 8 10
11 10 2 0 4 -4 4 -10z m-249 -1437 c12 -21 34 -51 48 -68 l26 -30 -31 28 c-28
25 -82 107 -70 107 2 0 14 -17 27 -37z m121 -142 c18 -15 47 -36 63 -45 26
-15 27 -16 5 -10 -23 6 -110 69 -110 80 0 9 11 3 42 -25z"/>
<path d="M7911 7294 c0 -11 3 -14 6 -6 3 7 2 16 -1 19 -3 4 -6 -2 -5 -13z"/>
<path d="M7882 7240 c0 -14 2 -19 5 -12 2 6 2 18 0 25 -3 6 -5 1 -5 -13z"/>
<path d="M7893 7160 c0 -25 2 -35 4 -22 2 12 2 32 0 45 -2 12 -4 2 -4 -23z"/>
<path d="M7941 7174 c0 -11 3 -14 6 -6 3 7 2 16 -1 19 -3 4 -6 -2 -5 -13z"/>
<path d="M7950 7145 c0 -15 41 -287 48 -315 6 -24 6 -24 10 5 4 41 -35 296
-48 309 -6 6 -10 6 -10 1z"/>
<path d="M7933 7045 c0 -22 2 -30 4 -17 2 12 2 30 0 40 -3 9 -5 -1 -4 -23z"/>
<path d="M6473 6920 c0 -25 2 -35 4 -22 2 12 2 32 0 45 -2 12 -4 2 -4 -23z"/>
<path d="M5530 6875 c-20 -24 -6 -28 15 -5 10 11 13 20 8 20 -6 0 -16 -7 -23
-15z"/>
<path d="M6462 6825 c0 -16 2 -22 5 -12 2 9 2 23 0 30 -3 6 -5 -1 -5 -18z"/>
<path d="M5186 6615 c-3 -9 -10 -13 -16 -10 -5 3 -10 1 -10 -5 0 -6 -4 -9 -9
-5 -6 3 -74 -28 -153 -68 -79 -41 -172 -86 -208 -100 -137 -55 -340 -131 -460
-173 -200 -68 -555 -225 -714 -316 -298 -170 -455 -279 -651 -452 -137 -121
-151 -136 -292 -325 -174 -231 -320 -480 -382 -649 -51 -139 -103 -363 -137
-592 -31 -208 -16 -519 34 -720 11 -41 27 -111 37 -155 9 -44 21 -87 26 -95 7
-11 8 -8 4 10 -3 14 -12 63 -20 110 -8 47 -19 100 -24 118 -6 19 -15 106 -21
195 -9 132 -8 180 3 257 16 107 16 111 20 -215 3 -184 7 -246 18 -265 12 -22
15 10 21 285 4 171 11 330 16 355 5 28 7 -30 4 -155 -3 -142 1 -253 13 -385
10 -102 18 -225 20 -275 1 -66 9 -111 28 -169 15 -43 27 -90 27 -105 0 -14 4
-32 9 -40 14 -21 2 74 -20 158 -21 82 -36 246 -21 221 5 -8 12 -43 16 -78 4
-34 14 -84 22 -110 7 -26 18 -74 24 -107 10 -62 69 -216 70 -180 0 11 -10 40
-21 65 -11 25 -23 68 -26 95 -3 28 -13 77 -23 111 -10 34 -22 109 -26 168 -6
97 -17 133 -26 89 -2 -10 -8 38 -13 107 -14 181 -10 477 9 600 13 89 14 94 11
35 -3 -38 -10 -128 -16 -200 -12 -138 -2 -308 27 -470 8 -44 21 -131 30 -194
8 -63 19 -122 25 -132 5 -10 13 -47 18 -83 10 -66 33 -135 98 -284 21 -48 39
-78 43 -72 7 12 25 -34 22 -56 -1 -6 18 -30 42 -54 25 -24 43 -47 41 -51 -3
-3 4 -14 14 -23 19 -17 19 -16 6 21 -14 39 -20 81 -9 71 6 -6 12 -32 13 -56 1
-7 27 -38 59 -69 31 -31 56 -60 55 -65 -2 -4 0 -7 5 -6 4 1 17 -3 29 -10 17
-9 22 -9 26 1 3 6 6 2 6 -10 1 -13 4 -22 9 -21 4 2 22 -11 41 -27 18 -17 38
-29 42 -27 5 1 14 -9 19 -22 5 -13 14 -27 21 -32 9 -5 10 -2 5 12 -4 10 11 -1
33 -24 22 -24 45 -41 51 -37 6 4 9 1 8 -5 -4 -16 198 -131 418 -240 201 -99
444 -185 704 -250 190 -47 228 -54 455 -81 199 -24 624 -31 830 -15 l110 9
-85 12 c-146 21 -286 87 -396 187 -88 81 -216 248 -268 351 -96 191 -128 495
-82 762 8 44 12 83 9 88 -2 4 1 7 6 7 6 0 11 8 11 18 0 14 -2 15 -10 2 -9 -13
-13 -11 -30 10 -18 23 -20 23 -20 5 -1 -18 -2 -18 -10 3 -11 25 -30 30 -30 7
0 -8 -4 -15 -10 -15 -5 0 -10 14 -10 30 0 17 -4 30 -10 30 -5 0 -10 7 -10 15
0 20 -16 19 -24 -1 -4 -10 -14 -14 -26 -11 -17 4 -20 0 -20 -26 0 -46 -16 -67
-23 -31 -12 63 -14 69 -28 69 -7 0 -18 -13 -23 -30 -21 -73 -26 -67 -23 38 2
108 -5 139 -17 68 -3 -21 -13 -51 -21 -67 -8 -16 -15 -38 -15 -49 0 -17 -2
-17 -10 -5 -12 19 -13 111 -1 142 13 36 23 136 12 118 -5 -8 -13 -36 -16 -62
-4 -27 -13 -55 -21 -63 -8 -7 -14 -20 -14 -28 0 -8 -7 -20 -15 -27 -8 -7 -15
-25 -15 -41 0 -16 -4 -29 -10 -29 -5 0 -10 -7 -10 -15 0 -8 -5 -15 -11 -15
-18 0 -4 131 26 252 14 55 23 103 21 105 -4 4 -26 -55 -56 -152 -12 -38 -25
-74 -30 -80 -4 -5 -11 -28 -14 -50 -4 -22 -17 -60 -29 -85 -19 -41 -21 -43
-25 -20 -12 72 57 395 109 507 48 105 60 133 55 133 -3 0 -30 -51 -59 -112
-57 -118 -123 -301 -152 -425 -10 -40 -25 -78 -33 -85 -14 -12 -15 -3 -9 79 8
112 72 366 121 483 20 46 36 87 36 90 0 14 -50 -85 -80 -160 -18 -47 -41 -96
-50 -110 -8 -14 -24 -51 -34 -82 -11 -32 -24 -58 -29 -58 -5 0 -7 -8 -5 -18 3
-10 -3 -34 -13 -53 l-18 -34 -1 30 c-1 87 77 371 130 474 12 24 19 45 17 48
-3 2 -22 -31 -44 -74 -21 -43 -47 -89 -59 -102 -28 -30 -65 -106 -75 -151 -19
-84 -25 -104 -31 -95 -15 26 51 295 100 406 10 24 22 53 26 63 7 19 6 19 -14
1 -11 -10 -20 -24 -20 -31 0 -7 -3 -14 -7 -16 -5 -1 -16 -20 -25 -40 -14 -29
-24 -38 -43 -38 -14 0 -25 2 -25 3 0 10 32 67 41 72 9 6 13 78 4 87 -13 13
-55 -5 -55 -23 0 -11 -7 -19 -15 -19 -8 0 -15 -6 -15 -13 0 -20 -38 -95 -63
-123 -15 -18 -23 -41 -24 -77 -6 -126 -25 -189 -36 -119 -4 25 -4 25 -6 -5 0
-18 4 -33 9 -33 13 0 13 -77 0 -82 -11 -4 -30 -156 -30 -243 0 -91 65 -439 96
-515 22 -54 91 -177 114 -205 10 -11 30 -42 46 -70 46 -82 137 -181 349 -379
l40 -38 -62 42 c-75 51 -288 267 -366 371 -79 105 -171 268 -212 374 -51 133
-102 329 -116 447 -22 194 3 512 58 713 26 95 110 311 163 420 27 55 84 154
127 220 43 66 94 146 113 178 19 33 46 70 59 83 13 13 21 24 17 24 -3 0 8 14
26 31 18 18 24 25 13 18 -11 -8 -24 -18 -28 -24 -5 -6 -6 1 -3 15 5 20 -2 31
-32 58 -20 17 -42 32 -49 32 -23 0 -21 147 3 218 8 24 12 48 8 53 -3 5 2 16
10 25 9 8 16 24 16 35 0 30 36 89 84 139 24 25 46 57 47 70 3 19 11 26 32 28
25 3 40 22 16 22 -11 0 48 60 60 60 3 1 17 10 30 21 20 17 22 22 10 32 -8 7
-12 11 -10 10 2 -2 11 7 19 19 12 16 13 23 4 26 -7 2 -10 8 -7 12 3 5 12 7 20
3 11 -4 13 -1 9 11 -3 9 -9 16 -13 16 -20 0 -289 -240 -390 -348 -179 -191
-363 -444 -454 -627 -235 -468 -319 -796 -304 -1189 10 -268 51 -465 143 -700
55 -140 116 -264 160 -321 49 -65 144 -218 121 -195 -40 41 -173 245 -226 349
-67 131 -124 275 -165 417 -48 169 -81 458 -73 649 7 182 60 488 97 569 21 44
50 149 50 179 0 10 10 37 23 60 23 42 49 121 62 187 9 40 63 150 75 150 5 0 6
8 4 18 -3 10 7 29 26 47 19 18 33 43 36 67 4 21 11 38 16 38 5 0 4 9 -2 20
-10 18 -7 24 13 21 4 0 7 11 7 25 0 21 4 25 17 20 10 -4 14 -4 10 0 -4 4 2 13
13 21 11 8 20 20 20 28 0 8 13 28 30 45 16 17 36 43 44 58 8 15 29 43 46 62
64 69 74 84 32 45 -54 -49 -254 -297 -312 -385 -23 -36 -58 -86 -77 -112 -19
-27 -32 -48 -29 -48 3 0 0 -14 -6 -31 -6 -16 -12 -28 -14 -26 -3 2 0 17 6 33
10 26 10 28 -4 14 -9 -9 -22 -36 -30 -60 -9 -29 -14 -37 -15 -23 -1 25 28 103
38 103 9 0 75 89 93 126 8 16 13 37 11 46 -2 9 5 34 16 55 11 21 20 32 21 24
0 -8 7 -4 18 10 32 43 54 82 42 74 -8 -5 -8 -1 1 13 7 12 17 18 21 16 4 -3 8
2 8 11 0 9 16 37 35 62 19 25 35 42 35 38 0 -5 9 0 20 10 21 19 26 35 11 35
-12 0 -147 -160 -211 -250 -29 -41 -56 -77 -59 -80 -12 -10 -88 -125 -105
-158 -10 -19 -18 -47 -18 -64 -1 -21 -3 -26 -9 -15 -16 28 49 162 120 247 42
50 111 154 111 168 0 4 17 26 38 48 44 45 74 124 48 124 -24 0 -66 -64 -67
-102 0 -21 -1 -22 -8 -3 -7 18 -9 18 -23 -10 -8 -17 -21 -48 -28 -70 -12 -36
-14 -38 -19 -16 -6 21 -9 17 -31 -30 -15 -33 -26 -47 -28 -37 -4 23 41 115 54
111 6 -2 16 7 22 21 11 26 85 130 127 181 38 46 31 61 -13 26 -21 -16 -50 -51
-63 -76 -13 -25 -27 -45 -31 -45 -5 0 -8 -6 -8 -13 0 -7 -7 -22 -15 -33 -14
-19 -14 -19 -15 3 0 12 7 29 16 37 9 9 20 32 25 50 5 19 26 51 46 71 19 19 33
38 31 41 -9 9 -118 -106 -118 -125 0 -10 -8 -29 -18 -42 -11 -13 -23 -38 -29
-54 -6 -17 -22 -47 -36 -68 -14 -21 -28 -51 -32 -67 -4 -17 -10 -30 -15 -30
-12 0 7 70 27 99 10 14 36 66 57 114 31 70 49 97 88 130 93 79 218 202 218
215 0 6 6 12 13 12 7 0 17 8 24 19 23 37 190 169 273 215 47 26 135 78 195
116 61 38 144 87 185 109 182 94 216 111 230 111 9 0 20 4 25 9 6 5 28 14 50
21 22 7 35 15 28 17 -6 2 -31 -5 -54 -16 -24 -12 -53 -21 -65 -21 -12 0 -53
-16 -91 -36 -37 -20 -81 -43 -98 -51 -16 -7 -46 -22 -65 -33 -19 -10 -69 -35
-110 -56 -41 -21 -109 -61 -150 -89 -41 -28 -115 -73 -165 -100 -49 -26 -124
-72 -165 -102 -41 -29 -86 -61 -100 -71 -13 -9 -38 -28 -55 -42 -65 -55 -67
-50 -4 11 36 35 95 82 130 104 129 81 235 145 254 154 11 5 49 30 85 57 35 26
105 67 155 92 49 24 92 48 95 52 3 4 43 26 90 49 47 22 101 50 120 61 19 11
44 20 56 20 24 0 106 39 83 40 -31 0 -131 -40 -281 -114 -84 -41 -178 -86
-208 -100 -52 -24 -84 -42 -140 -77 -14 -9 -70 -42 -125 -74 -55 -32 -109 -66
-120 -75 -11 -9 -33 -22 -50 -30 -29 -14 -51 -29 -220 -150 -43 -30 -109 -89
-147 -130 -39 -41 -66 -66 -60 -55 22 43 193 194 305 270 178 120 285 188 387
244 19 10 60 35 90 55 30 20 85 47 122 62 36 14 72 32 78 40 7 8 16 14 20 14
11 0 339 161 440 216 89 48 139 84 90 65 -39 -15 -94 -43 -110 -56 -8 -7 -82
-43 -165 -80 -82 -37 -160 -73 -171 -80 -28 -18 -145 -58 -151 -51 -2 2 12 9
32 16 20 7 102 45 183 85 81 40 173 85 205 98 31 14 57 30 57 35 0 5 32 23 70
41 70 33 95 57 43 41 -39 -11 -127 -51 -133 -60 -7 -10 -154 -83 -230 -114
-73 -30 -116 -35 -53 -6 113 51 261 125 288 144 17 12 41 26 55 32 108 48 153
70 166 86 15 16 14 16 -22 -1 -22 -10 -61 -26 -87 -35 -27 -9 -61 -23 -77 -31
-18 -9 -31 -11 -35 -5 -3 5 4 14 17 19 13 5 52 21 88 35 86 33 120 49 120 59
0 4 9 16 20 27 11 11 20 29 20 40 0 11 7 23 15 26 8 4 15 12 15 20 0 8 5 14
11 14 8 0 10 15 5 46 -4 30 -2 52 5 61 7 7 10 16 7 19 -3 3 -8 -2 -12 -11z
m-159 -261 c-3 -3 -12 -4 -19 -1 -8 3 -5 6 6 6 11 1 17 -2 13 -5z m-256 -159
c-23 -14 -46 -25 -49 -25 -14 0 64 49 78 49 8 1 -5 -10 -29 -24z m-61 -35 c0
-5 -7 -10 -15 -10 -9 0 -29 -7 -45 -15 -17 -9 -30 -13 -30 -10 0 5 71 44 83
45 4 0 7 -4 7 -10z m-162 -35 c-8 -8 -142 -55 -146 -51 -2 2 21 13 50 24 29
10 60 22 68 25 20 7 35 8 28 2z m-58 -75 c-20 -13 -33 -13 -25 0 3 6 14 10 23
10 15 0 15 -2 2 -10z m50 -25 c0 -7 -70 -35 -84 -34 -6 0 7 9 29 20 41 19 55
23 55 14z m-103 -41 c-7 -8 -119 -54 -127 -53 -3 0 22 14 55 30 57 27 86 37
72 23z m-150 -70 c-3 -3 -12 -4 -19 -1 -8 3 -5 6 6 6 11 1 17 -2 13 -5z m103
-11 c-64 -28 -254 -126 -293 -150 -22 -14 -41 -22 -43 -20 -6 5 67 49 141 86
28 14 52 28 55 32 6 9 151 69 165 68 6 0 -6 -7 -25 -16z m-321 -101 c-13 -11
-55 -37 -94 -60 -38 -23 -88 -54 -110 -69 -51 -36 -91 -53 -55 -22 35 29 127
89 137 89 4 0 35 18 68 40 61 41 97 55 54 22z m-309 -126 c0 -2 -8 -10 -17
-17 -16 -13 -17 -12 -4 4 13 16 21 21 21 13z m185 -15 c-3 -6 -45 -34 -93 -63
-170 -102 -268 -172 -339 -244 -83 -81 -95 -87 -27 -11 68 76 248 213 338 258
43 22 88 46 99 54 25 17 30 19 22 6z m-225 -46 c0 -2 -9 -9 -20 -15 -16 -9
-18 -8 -14 5 5 13 34 22 34 10z m-160 -8 c0 -2 -28 -26 -61 -53 -60 -48 -327
-337 -463 -501 -37 -46 -70 -83 -73 -83 -5 0 -4 2 108 140 118 146 335 379
413 443 69 55 76 61 76 54z m-98 -184 c-28 -32 -83 -89 -123 -128 -40 -39 -20
-14 47 57 126 135 159 166 76 71z m388 3 c0 -2 -8 -10 -17 -17 -16 -13 -17
-12 -4 4 13 16 21 21 21 13z m-715 -146 c-32 -33 -97 -99 -144 -147 -46 -49
-76 -77 -66 -63 23 30 258 270 265 270 2 0 -22 -27 -55 -60z m615 50 c0 -5 -5
-10 -11 -10 -5 0 -7 5 -4 10 3 6 8 10 11 10 2 0 4 -4 4 -10z m-66 -38 c-41
-30 -94 -60 -82 -47 14 14 103 74 112 74 5 1 -9 -12 -30 -27z m-624 14 c0 -2
-8 -10 -17 -17 -16 -13 -17 -12 -4 4 13 16 21 21 21 13z m354 -58 c-23 -41
-126 -157 -332 -378 -3 -3 0 4 6 15 6 11 30 41 54 66 54 57 227 254 251 285
20 25 33 33 21 12z m-165 -86 c-178 -190 -241 -255 -234 -242 11 18 276 300
283 300 3 0 -19 -26 -49 -58z m211 24 c0 -17 -88 -116 -103 -116 -6 0 7 17 27
38 21 20 44 49 52 65 16 30 24 34 24 13z m130 -19 c0 -2 -21 -19 -46 -37 -26
-18 -62 -49 -81 -69 -19 -20 -30 -27 -24 -16 12 24 50 65 81 85 12 8 29 20 38
27 16 12 32 17 32 10z m-700 -61 c0 -2 -8 -10 -17 -17 -16 -13 -17 -12 -4 4
13 16 21 21 21 13z m623 -69 c-16 -23 -57 -69 -93 -102 l-64 -60 65 76 c36 42
74 88 85 102 31 43 36 31 7 -16z m-663 20 c0 -2 -10 -12 -22 -23 l-23 -19 19
23 c18 21 26 27 26 19z m420 -100 l-43 -42 38 48 c21 26 40 45 43 42 4 -3 -14
-25 -38 -48z m-470 39 c0 -2 -8 -10 -17 -17 -16 -13 -17 -12 -4 4 13 16 21 21
21 13z m483 -121 c-20 -25 -39 -45 -41 -45 -6 0 15 27 47 63 39 43 36 31 -6
-18z m68 -22 c-17 -29 -51 -69 -51 -60 0 9 50 77 57 77 2 0 -1 -8 -6 -17z m68
-35 c-10 -29 -23 -85 -29 -125 -8 -47 -17 -73 -27 -77 -11 -5 -13 -2 -8 11 4
10 19 69 33 131 15 68 30 112 37 112 9 0 8 -14 -6 -52z m73 -27 c-17 -32 -36
-77 -43 -100 -7 -22 -16 -41 -20 -41 -4 0 -4 14 1 31 12 42 84 187 88 177 2
-4 -10 -34 -26 -67z m-432 29 c0 -5 -10 -15 -22 -21 -23 -12 -23 -12 -4 10 21
23 26 26 26 11z m140 -30 c-6 -11 -13 -20 -16 -20 -2 0 0 9 6 20 6 11 13 20
16 20 2 0 0 -9 -6 -20z m134 -34 c-3 -21 -8 -35 -11 -32 -2 2 -1 20 3 40 3 21
8 35 11 32 2 -2 1 -20 -3 -40z m-63 7 c-12 -20 -14 -14 -5 12 4 9 9 14 11 11
3 -2 0 -13 -6 -23z m-263 -3 c-7 -10 -14 -17 -17 -15 -4 4 18 35 25 35 2 0 -1
-9 -8 -20z m592 16 c0 -3 -4 -8 -10 -11 -5 -3 -10 -1 -10 4 0 6 5 11 10 11 6
0 10 -2 10 -4z m-503 -48 c-3 -8 -6 -5 -6 6 -1 11 2 17 5 13 3 -3 4 -12 1 -19z
m150 -50 c-3 -7 -5 -2 -5 12 0 14 2 19 5 13 2 -7 2 -19 0 -25z m70 -30 c-2
-13 -4 -3 -4 22 0 25 2 35 4 23 2 -13 2 -33 0 -45z m-240 0 c-3 -8 -6 -5 -6 6
-1 11 2 17 5 13 3 -3 4 -12 1 -19z m114 -24 c-5 -16 -10 -21 -10 -12 -1 18 10
51 15 45 2 -1 -1 -16 -5 -33z m-71 -29 c-6 -30 -8 -33 -9 -13 -1 25 8 62 14
56 2 -2 -1 -21 -5 -43z m-203 3 c-3 -8 -6 -5 -6 6 -1 11 2 17 5 13 3 -3 4 -12
1 -19z m-60 -30 c-3 -7 -5 -2 -5 12 0 14 2 19 5 13 2 -7 2 -19 0 -25z m100 0
c-3 -8 -6 -5 -6 6 -1 11 2 17 5 13 3 -3 4 -12 1 -19z m-50 -10 c-3 -8 -6 -5
-6 6 -1 11 2 17 5 13 3 -3 4 -12 1 -19z m649 -35 c-10 -26 -18 -8 -9 23 5 21
8 24 11 11 2 -10 1 -25 -2 -34z m-709 -25 c-3 -8 -6 -5 -6 6 -1 11 2 17 5 13
3 -3 4 -12 1 -19z m470 -130 c-2 -29 -3 -6 -3 52 0 58 1 81 3 53 2 -29 2 -77
0 -105z m74 110 c-4 -35 -6 -38 -9 -15 -3 26 3 57 10 57 2 0 1 -19 -1 -42z
m44 -58 c-4 -34 -9 -59 -12 -57 -2 3 -1 33 3 66 4 34 9 60 11 57 3 -3 2 -32
-2 -66z m-190 -213 c-4 -129 -11 -249 -16 -268 -6 -26 -7 -19 -4 31 3 36 8
156 11 268 4 111 9 202 12 202 2 0 1 -105 -3 -233z m-468 176 c-3 -10 -5 -4
-5 12 0 17 2 24 5 18 2 -7 2 -21 0 -30z m-280 -10 c-3 -10 -5 -4 -5 12 0 17 2
24 5 18 2 -7 2 -21 0 -30z m967 -8 c-13 -46 -33 -87 -34 -71 0 17 35 116 42
116 3 0 0 -20 -8 -45z m-1027 -67 c-2 -18 -4 -6 -4 27 0 33 2 48 4 33 2 -15 2
-42 0 -60z m340 -95 c-2 -32 -3 -8 -3 52 0 61 1 87 3 58 2 -29 2 -78 0 -110z
m400 125 c-3 -7 -5 -2 -5 12 0 14 2 19 5 13 2 -7 2 -19 0 -25z m-690 -125 c-2
-21 -4 -4 -4 37 0 41 2 58 4 38 2 -21 2 -55 0 -75z m435 -115 l-9 -133 1 173
c1 117 4 160 9 132 5 -22 4 -100 -1 -172z m82 -178 c-4 -80 -9 -139 -12 -131
-2 7 0 129 4 270 8 213 10 235 12 131 2 -69 0 -190 -4 -270z m173 148 c-1 -46
-3 -9 -3 82 0 91 2 128 3 83 2 -46 2 -120 0 -165z m180 195 c-3 -10 -5 -2 -5
17 0 19 2 27 5 18 2 -10 2 -26 0 -35z m-490 -10 c-3 -10 -5 -2 -5 17 0 19 2
27 5 18 2 -10 2 -26 0 -35z m-40 -60 c-2 -16 -4 -3 -4 27 0 30 2 43 4 28 2
-16 2 -40 0 -55z m-100 10 c-3 -10 -5 -4 -5 12 0 17 2 24 5 18 2 -7 2 -21 0
-30z m-300 -50 c-2 -16 -4 -3 -4 27 0 30 2 43 4 28 2 -16 2 -40 0 -55z m880
25 c-2 -13 -4 -5 -4 17 -1 22 1 32 4 23 2 -10 2 -28 0 -40z m72 14 c-6 -18
-15 -32 -20 -32 -12 0 -12 2 7 39 20 40 28 35 13 -7z m-512 -34 c-2 -13 -4 -5
-4 17 -1 22 1 32 4 23 2 -10 2 -28 0 -40z m214 -103 c-7 -87 -8 -91 -9 -35 -2
59 7 145 13 138 2 -2 0 -48 -4 -103z m-744 48 c-3 -10 -5 -2 -5 17 0 19 2 27
5 18 2 -10 2 -26 0 -35z m260 -70 c-2 -21 -4 -6 -4 32 0 39 2 55 4 38 2 -18 2
-50 0 -70z m-120 35 c-2 -13 -4 -5 -4 17 -1 22 1 32 4 23 2 -10 2 -28 0 -40z
m-60 -155 c-2 -38 -3 -7 -3 67 0 74 1 105 3 68 2 -38 2 -98 0 -135z m110 115
c-2 -18 -4 -6 -4 27 0 33 2 48 4 33 2 -15 2 -42 0 -60z m240 -90 c-2 -35 -3
-9 -3 57 0 66 1 94 3 63 2 -32 2 -86 0 -120z m-110 110 c-2 -13 -4 -5 -4 17
-1 22 1 32 4 23 2 -10 2 -28 0 -40z m653 -71 c-17 -99 -23 -76 -8 34 8 55 14
82 17 64 1 -16 -2 -61 -9 -98z m-440 -139 c-8 -27 -9 -21 -5 37 3 39 6 99 7
135 2 44 3 32 5 -37 2 -57 -1 -117 -7 -135z m-503 175 c-3 -10 -5 -4 -5 12 0
17 2 24 5 18 2 -7 2 -21 0 -30z m457 -40 c-4 -37 -10 -60 -12 -49 -5 23 8 130
15 123 2 -3 1 -36 -3 -74z m-507 35 c-3 -8 -6 -5 -6 6 -1 11 2 17 5 13 3 -3 4
-12 1 -19z m331 -115 c-1 -59 -5 -96 -8 -83 -7 25 -1 190 7 190 2 0 3 -48 1
-107z m-291 50 c-3 -10 -5 -2 -5 17 0 19 2 27 5 18 2 -10 2 -26 0 -35z m-50
15 c-3 -8 -6 -5 -6 6 -1 11 2 17 5 13 3 -3 4 -12 1 -19z m830 -15 c-3 -10 -5
-4 -5 12 0 17 2 24 5 18 2 -7 2 -21 0 -30z m-652 -63 c-4 -39 -9 -69 -12 -67
-2 3 -1 37 3 76 3 40 9 70 11 67 3 -3 2 -37 -2 -76z m102 33 c-3 -10 -5 -2 -5
17 0 19 2 27 5 18 2 -10 2 -26 0 -35z m-290 5 c-3 -8 -6 -5 -6 6 -1 11 2 17 5
13 3 -3 4 -12 1 -19z m630 -151 c-2 -23 -3 -1 -3 48 0 50 1 68 3 42 2 -26 2
-67 0 -90z m-230 -29 c-2 -29 -3 -6 -3 52 0 58 1 81 3 53 2 -29 2 -77 0 -105z
m-173 -79 c-15 -172 -15 -446 1 -569 5 -35 5 -35 -5 -5 -13 40 -30 281 -25
341 3 27 9 110 15 184 14 180 21 243 26 237 3 -3 -2 -87 -12 -188z m77 101
l-8 -75 -2 85 c-1 55 2 81 9 74 6 -6 7 -37 1 -84z m476 -2 c-2 -18 -4 -4 -4
32 0 36 2 50 4 33 2 -18 2 -48 0 -65z m92 40 c-4 -29 -13 -95 -20 -146 -7 -51
-14 -90 -17 -88 -2 3 1 42 7 88 6 46 11 109 12 141 2 36 7 57 14 57 9 0 10
-14 4 -52z m-779 -150 c-13 -165 -8 -323 15 -453 21 -121 53 -352 59 -425 5
-61 5 -60 -9 20 -18 105 -39 240 -66 435 -17 123 -20 177 -15 305 6 171 16
284 23 276 3 -3 0 -74 -7 -158z m77 110 c-3 -8 -6 -5 -6 6 -1 11 2 17 5 13 3
-3 4 -12 1 -19z m520 -10 c-3 -8 -6 -5 -6 6 -1 11 2 17 5 13 3 -3 4 -12 1 -19z
m-256 -208 c-6 -148 -8 -170 -9 -90 -2 106 9 313 15 295 1 -6 -1 -98 -6 -205z
m-276 140 c-4 -28 -9 -49 -12 -47 -2 3 -1 28 3 56 4 28 9 50 11 47 3 -3 2 -28
-2 -56z m202 -122 c-2 -35 -3 -7 -3 62 0 69 1 97 3 63 2 -35 2 -91 0 -125z
m230 55 c-2 -21 -4 -4 -4 37 0 41 2 58 4 38 2 -21 2 -55 0 -75z m90 40 c-2
-16 -4 -5 -4 22 0 28 2 40 4 28 2 -13 2 -35 0 -50z m80 -10 c-2 -16 -4 -5 -4
22 0 28 2 40 4 28 2 -13 2 -35 0 -50z m-230 -10 c-2 -16 -4 -5 -4 22 0 28 2
40 4 28 2 -13 2 -35 0 -50z m-240 -45 c-2 -18 -4 -4 -4 32 0 36 2 50 4 33 2
-18 2 -48 0 -65z m210 -225 c-1 -59 -3 -13 -3 102 0 116 2 164 3 108 2 -56 2
-151 0 -210z m-338 -203 c5 -63 17 -168 26 -234 8 -65 13 -121 10 -124 -3 -3
-5 -1 -5 5 0 5 -7 59 -15 119 -28 194 -45 416 -43 559 l1 140 8 -175 c4 -96
12 -227 18 -290z m508 398 c-2 -13 -4 -3 -4 22 0 25 2 35 4 23 2 -13 2 -33 0
-45z m80 5 c-3 -10 -5 -2 -5 17 0 19 2 27 5 18 2 -10 2 -26 0 -35z m-470 -245
c-1 -46 -3 -11 -3 77 0 88 2 125 3 83 2 -42 2 -114 0 -160z m300 140 c-2 -18
-4 -4 -4 32 0 36 2 50 4 33 2 -18 2 -48 0 -65z m160 0 c-2 -18 -4 -6 -4 27 0
33 2 48 4 33 2 -15 2 -42 0 -60z m90 10 c-2 -13 -4 -3 -4 22 0 25 2 35 4 23 2
-13 2 -33 0 -45z m-170 -91 c-2 -23 -3 -1 -3 48 0 50 1 68 3 42 2 -26 2 -67 0
-90z m-284 -295 c3 -13 1 -20 -4 -15 -11 11 -29 222 -28 313 1 37 7 -9 15
-105 7 -93 15 -180 17 -193z m434 271 c-3 -10 -5 -2 -5 17 0 19 2 27 5 18 2
-10 2 -26 0 -35z m-380 -135 c-2 -18 -4 -4 -4 32 0 36 2 50 4 33 2 -18 2 -48
0 -65z m-130 -20 c-3 -7 -5 -2 -5 12 0 14 2 19 5 13 2 -7 2 -19 0 -25z m-20
-80 c-3 -7 -5 -2 -5 12 0 14 2 19 5 13 2 -7 2 -19 0 -25z m160 -40 c-2 -13 -4
-3 -4 22 0 25 2 35 4 23 2 -13 2 -33 0 -45z m-150 -10 c-3 -7 -5 -2 -5 12 0
14 2 19 5 13 2 -7 2 -19 0 -25z m10 -55 c-3 -10 -5 -4 -5 12 0 17 2 24 5 18 2
-7 2 -21 0 -30z m-19 -148 c0 -16 -2 -15 -8 5 -4 14 -8 34 -8 45 0 16 2 15 8
-5 4 -14 8 -34 8 -45z m-51 -7 c-3 -8 -6 -5 -6 6 -1 11 2 17 5 13 3 -3 4 -12
1 -19z m10 -50 c-3 -8 -6 -5 -6 6 -1 11 2 17 5 13 3 -3 4 -12 1 -19z m60 -30
c-3 -8 -6 -5 -6 6 -1 11 2 17 5 13 3 -3 4 -12 1 -19z m-63 -83 c13 -49 23 -91
21 -93 -4 -4 -39 105 -50 158 -13 63 3 27 29 -65z m23 43 c-3 -7 -5 -2 -5 12
0 14 2 19 5 13 2 -7 2 -19 0 -25z m-48 -87 c12 -38 21 -75 21 -82 0 -7 10 -32
21 -56 28 -58 17 -68 -12 -11 -20 38 -38 102 -56 191 -10 51 5 27 26 -42z
m259 34 c-3 -3 -9 2 -12 12 -6 14 -5 15 5 6 7 -7 10 -15 7 -18z m-117 -355
c10 -23 9 -24 -7 -8 -16 16 -55 111 -53 133 0 9 40 -72 60 -125z m68 -10 c0
-10 -3 -8 -9 5 -12 27 -12 43 0 25 5 -8 9 -22 9 -30z m79 -65 c-3 -3 -9 2 -12
12 -6 14 -5 15 5 6 7 -7 10 -15 7 -18z m-8 -59 c0 -6 -7 -2 -15 8 -8 11 -15
25 -15 30 0 6 7 2 15 -8 8 -11 15 -25 15 -30z m109 -31 c0 -5 -6 -1 -14 9 -8
11 -15 24 -15 30 0 5 7 1 15 -10 8 -10 14 -23 14 -29z m59 -24 c33 -59 19 -50
-18 11 -18 29 -26 47 -19 41 8 -7 25 -30 37 -52z m1597 -681 c13 -6 15 -9 5
-9 -8 0 -22 4 -30 9 -18 12 -2 12 25 0z m678 -117 c-7 -2 -21 -2 -30 0 -10 3
-4 5 12 5 17 0 24 -2 18 -5z"/>
<path d="M4996 6133 c-4 -5 -12 -9 -17 -9 -5 -1 -11 -3 -14 -4 -3 -1 -10 -3
-17 -4 -6 0 -13 -7 -16 -14 -4 -12 0 -12 19 -1 13 7 30 14 37 15 17 3 27 12
20 19 -2 3 -8 2 -12 -2z"/>
<path d="M4865 6070 c-16 -11 -25 -20 -19 -20 11 0 64 39 54 40 -3 0 -18 -9
-35 -20z"/>
<path d="M4990 6080 c-13 -8 -12 -10 3 -10 9 0 17 5 17 10 0 12 -1 12 -20 0z"/>
<path d="M4941 6061 c-9 -6 -10 -11 -2 -15 6 -4 11 -2 11 4 0 6 5 8 10 5 6 -3
10 -1 10 4 0 13 -10 14 -29 2z"/>
<path d="M4905 6040 c-3 -5 -1 -10 4 -10 6 0 11 5 11 10 0 6 -2 10 -4 10 -3 0
-8 -4 -11 -10z"/>
<path d="M4693 5897 c-46 -23 -83 -47 -83 -54 0 -17 8 -16 27 3 9 8 22 13 30
10 8 -3 12 -2 8 3 -6 11 49 46 88 55 15 3 27 11 27 16 0 15 -9 12 -97 -33z"/>
<path d="M4750 5869 c0 -5 5 -7 10 -4 6 3 10 8 10 11 0 2 -4 4 -10 4 -5 0 -10
-5 -10 -11z"/>
<path d="M4580 5835 c-10 -12 -10 -15 4 -15 9 0 16 7 16 15 0 8 -2 15 -4 15
-2 0 -9 -7 -16 -15z"/>
<path d="M4455 5750 c-3 -5 -1 -10 4 -10 6 0 11 5 11 10 0 6 -2 10 -4 10 -3 0
-8 -4 -11 -10z"/>
<path d="M4347 5709 c-22 -11 -37 -23 -34 -25 3 -3 27 6 53 20 27 14 42 26 34
26 -8 -1 -32 -10 -53 -21z"/>
<path d="M5850 5643 l-65 -68 68 65 c62 60 72 70 64 70 -1 0 -32 -30 -67 -67z"/>
<path d="M4842 5675 c-7 -8 -9 -15 -4 -15 5 0 15 7 22 15 16 19 -1 19 -18 0z"/>
<path d="M4270 5660 c0 -5 -3 -9 -7 -8 -12 3 -116 -66 -105 -70 9 -3 132 74
132 83 0 3 -4 5 -10 5 -5 0 -10 -4 -10 -10z"/>
<path d="M4800 5639 c0 -5 5 -7 10 -4 6 3 10 8 10 11 0 2 -4 4 -10 4 -5 0 -10
-5 -10 -11z"/>
<path d="M4105 5572 c-16 -8 -50 -31 -75 -51 -47 -37 -313 -301 -304 -301 12
0 109 76 133 103 37 43 128 130 153 146 29 19 131 112 126 115 -2 1 -16 -4
-33 -12z"/>
<path d="M4120 5533 c-19 -15 -58 -48 -85 -73 -28 -26 -61 -52 -73 -59 -12 -6
-22 -18 -22 -27 0 -12 4 -12 28 3 15 9 39 29 54 44 14 15 32 31 40 36 16 10
104 103 98 103 -3 0 -21 -12 -40 -27z"/>
<path d="M5729 5534 c-56 -62 -333 -272 -559 -425 -286 -194 -383 -266 -375
-280 3 -5 0 -6 -8 -3 -8 3 -23 -5 -33 -19 -11 -13 -26 -26 -34 -29 -11 -3 -11
-6 3 -11 10 -4 17 -2 17 5 0 7 5 6 15 -2 13 -11 21 -9 45 8 16 12 32 22 36 22
3 0 15 12 26 26 11 14 26 23 33 20 18 -7 47 17 43 34 -2 10 7 16 27 18 17 2
46 19 70 42 67 65 96 90 121 107 13 8 24 21 24 27 0 6 13 20 30 29 16 10 35
27 40 38 6 11 15 17 21 14 5 -4 9 -1 9 5 0 6 4 9 9 6 5 -3 11 4 14 15 3 12 10
18 16 14 6 -3 11 -1 11 4 0 6 7 11 15 11 8 0 15 5 15 10 0 6 6 10 13 10 7 0
20 8 28 18 20 22 50 47 135 113 121 93 228 188 221 195 -2 2 -14 -8 -28 -22z"/>
<path d="M4130 5480 c-28 -23 -30 -28 -13 -24 12 4 29 17 38 30 20 30 18 30
-25 -6z"/>
<path d="M4620 5495 c-10 -12 -9 -15 4 -15 10 0 15 4 12 9 -4 5 0 12 6 14 8 4
9 6 2 6 -6 1 -17 -6 -24 -14z"/>
<path d="M4554 5448 c-5 -7 -2 -8 6 -3 8 5 11 3 8 -6 -3 -8 -11 -13 -17 -11
-6 1 -11 -2 -11 -8 0 -16 15 -12 34 9 15 16 15 19 2 24 -9 4 -18 1 -22 -5z"/>
<path d="M4115 5419 c-4 -6 -5 -12 -2 -15 2 -3 7 2 10 11 7 17 1 20 -8 4z"/>
<path d="M3975 5360 c-3 -6 1 -7 9 -4 18 7 21 14 7 14 -6 0 -13 -4 -16 -10z"/>
<path d="M4125 5298 l-40 -43 43 40 c23 21 42 40 42 42 0 8 -9 0 -45 -39z"/>
<path d="M3876 5305 c-11 -8 -15 -15 -9 -15 6 0 16 7 23 15 16 19 11 19 -14 0z"/>
<path d="M4059 5223 c-13 -16 -12 -17 4 -4 9 7 17 15 17 17 0 8 -8 3 -21 -13z"/>
<path d="M3919 5183 c-13 -16 -12 -17 4 -4 16 13 21 21 13 21 -2 0 -10 -8 -17
-17z"/>
<path d="M3775 5099 c-11 -17 1 -21 15 -4 8 9 8 15 2 15 -6 0 -14 -5 -17 -11z"/>
<path d="M7396 5068 c-17 -39 -21 -67 -8 -54 4 4 7 11 7 14 1 4 6 17 14 30 7
13 10 28 8 35 -3 7 -12 -5 -21 -25z"/>
<path d="M6647 5073 c-4 -3 -7 -11 -7 -17 0 -6 5 -5 12 2 6 6 9 14 7 17 -3 3
-9 2 -12 -2z"/>
<path d="M7312 5028 c-7 -7 -12 -17 -12 -24 0 -6 -7 -17 -15 -24 -8 -7 -15
-19 -15 -27 0 -20 22 2 44 46 19 35 17 48 -2 29z"/>
<path d="M8439 5006 c-7 -14 -16 -26 -21 -26 -5 0 -6 -4 -3 -10 3 -5 2 -10 -3
-10 -11 0 -62 -92 -62 -111 0 -8 9 -3 20 11 27 35 92 161 86 167 -3 3 -11 -6
-17 -21z"/>
<path d="M3760 4939 c-31 -43 -18 -47 14 -4 15 19 23 35 17 35 -5 0 -19 -14
-31 -31z"/>
<path d="M8292 4776 c-12 -20 -26 -36 -32 -36 -5 0 -10 -6 -10 -13 0 -8 -11
-24 -25 -37 -14 -13 -23 -30 -21 -36 3 -7 -1 -15 -8 -17 -20 -8 -48 -75 -41
-98 6 -18 19 -19 21 -1 2 20 18 42 29 42 8 0 17 5 21 12 5 7 3 8 -7 2 -7 -4 1
12 19 36 17 24 32 48 32 54 0 5 14 31 31 58 21 33 29 52 22 59 -7 7 -17 -1
-31 -25z m-51 -129 c-10 -9 -11 -8 -5 6 3 10 9 15 12 12 3 -3 0 -11 -7 -18z"/>
<path d="M4640 4709 c-19 -17 -29 -28 -22 -24 6 3 15 -1 18 -9 9 -23 24 -20
24 4 0 14 7 20 23 20 21 1 21 1 4 14 -18 14 -18 14 0 19 13 3 14 5 3 6 -9 0
-31 -13 -50 -30z"/>
<path d="M4585 4659 c-4 -6 -5 -12 -2 -15 2 -3 7 2 10 11 7 17 1 20 -8 4z"/>
<path d="M7316 4654 c-4 -9 -4 -19 -1 -22 2 -3 7 3 11 12 4 9 4 19 1 22 -2 3
-7 -3 -11 -12z"/>
<path d="M8124 4542 c5 -14 2 -27 -8 -38 -9 -8 -16 -12 -16 -7 -1 16 -29 -42
-30 -60 0 -10 -4 -16 -9 -13 -11 7 -26 -11 -36 -44 -8 -27 -23 -44 -45 -53
-11 -4 -11 -6 -2 -6 8 -1 10 -6 6 -13 -4 -7 5 -2 19 11 15 14 27 33 27 43 0
12 4 16 12 12 6 -4 8 -3 5 4 -4 5 -4 18 0 28 6 16 7 16 14 -2 7 -17 8 -17 8
-1 1 9 7 17 15 17 16 0 48 39 41 50 -3 4 2 13 10 20 20 16 19 37 -1 58 -15 15
-16 14 -10 -6z"/>
<path d="M7925 4238 l-40 -43 43 40 c39 36 47 45 39 45 -2 0 -21 -19 -42 -42z"/>
<path d="M7569 3923 c-13 -16 -12 -17 4 -4 16 13 21 21 13 21 -2 0 -10 -8 -17
-17z"/>
<path d="M7519 3883 c-13 -16 -12 -17 4 -4 16 13 21 21 13 21 -2 0 -10 -8 -17
-17z"/>
<path d="M4356 3523 c-6 -14 -5 -15 5 -6 7 7 10 15 7 18 -3 3 -9 -2 -12 -12z"/>
<path d="M4462 3303 c-17 -32 -41 -93 -37 -93 8 0 57 102 51 107 -2 3 -9 -4
-14 -14z"/>
<path d="M8274 3257 c-158 -134 -234 -196 -292 -239 -79 -59 -425 -279 -512
-326 -131 -71 -417 -256 -563 -364 -191 -141 -383 -329 -477 -468 -62 -92
-120 -216 -136 -296 -9 -42 -13 -78 -10 -81 3 -4 6 -1 6 5 0 7 9 12 21 12 13
0 18 4 13 12 -4 7 -3 8 4 4 6 -4 24 0 39 7 24 12 81 27 118 32 6 0 13 -4 17
-10 5 -6 8 -5 8 3 0 7 4 11 9 8 5 -3 12 1 15 10 4 10 14 14 25 11 12 -3 22 1
25 9 3 8 11 14 19 14 7 0 30 9 52 20 22 11 44 20 51 20 6 0 17 7 24 15 7 8 21
15 31 15 9 0 24 7 33 15 8 8 21 15 30 15 8 0 17 4 21 9 3 5 18 9 34 9 32 -1
54 9 46 22 -3 4 2 11 11 14 8 3 12 2 9 -4 -3 -6 1 -7 10 -4 9 4 14 9 11 12 -9
8 36 42 56 42 10 0 18 5 18 11 0 5 4 8 9 5 4 -3 19 6 31 19 13 14 28 25 34 25
6 0 49 27 95 60 46 33 88 60 93 60 4 0 22 13 39 30 18 16 52 44 76 62 25 18
69 52 99 76 29 23 56 42 59 42 3 0 31 26 63 58 32 31 71 69 88 83 16 14 36 36
44 48 8 12 21 19 28 16 7 -2 11 -1 8 3 -3 5 18 33 47 63 81 86 118 129 111
129 -4 0 1 9 11 20 10 11 22 17 28 13 6 -3 7 -1 3 5 -9 15 18 68 39 75 8 4 15
14 15 24 0 10 18 42 40 71 22 28 35 52 30 52 -5 0 2 11 16 25 13 13 27 39 31
56 4 22 14 34 34 41 16 5 29 14 29 19 0 6 -9 5 -21 -1 -29 -16 -35 -6 -10 19
12 12 21 26 21 31 0 6 14 10 30 10 17 0 30 4 30 8 0 5 -15 7 -32 5 -18 -2 -26
0 -18 4 17 7 40 29 40 38 0 3 -10 4 -22 1 -13 -3 -18 -3 -11 0 7 3 11 11 9 17
-1 7 -1 8 2 4 2 -5 9 0 16 11 6 11 17 30 25 43 10 19 11 21 0 12 -19 -19 -31
-16 -24 6 3 11 1 22 -4 25 -5 4 9 24 32 46 60 56 43 49 -29 -13z m-18 -55 c-8
-9 -19 -13 -22 -9 -10 9 16 38 28 31 6 -4 4 -13 -6 -22z m9 -33 c11 -17 -1
-21 -15 -4 -8 9 -8 15 -2 15 6 0 14 -5 17 -11z"/>
<path d="M5740 3220 c8 -5 20 -10 25 -10 6 0 3 5 -5 10 -8 5 -19 10 -25 10 -5
0 -3 -5 5 -10z"/>
<path d="M6486 3032 c-2 -4 -1 -14 4 -22 7 -11 9 -9 7 8 -1 24 -3 26 -11 14z"/>
<path d="M6612 3014 c-1 -13 0 -24 2 -24 7 0 14 40 7 44 -4 3 -8 -6 -9 -20z"/>
<path d="M6450 2988 c0 -4 4 -8 10 -8 5 0 14 -9 20 -20 9 -16 7 -24 -5 -36 -8
-8 -15 -12 -15 -7 0 5 5 14 12 21 8 8 8 12 1 12 -6 0 -16 -7 -23 -15 -12 -14
-15 -13 -32 5 -10 11 -26 20 -36 20 -10 1 -5 6 13 14 29 13 29 14 5 13 -35 -2
-253 -222 -358 -363 -229 -305 -322 -665 -242 -939 11 -38 22 -79 25 -89 2
-11 18 -42 35 -70 59 -97 176 -129 319 -86 l66 20 18 77 c53 221 218 457 477
680 62 54 231 183 286 220 29 20 51 40 47 46 -3 6 -1 7 5 3 9 -5 122 59 122
70 0 5 -54 -19 -60 -27 -6 -7 -46 -29 -54 -29 -3 0 -6 5 -6 12 0 6 3 9 6 5 4
-3 12 -1 20 6 33 30 44 37 55 37 6 0 9 7 6 15 -4 8 -1 17 5 21 6 4 8 3 4 -4
-15 -25 11 -15 41 15 17 18 28 33 25 33 -4 0 -1 4 7 9 12 8 12 12 -2 26 -18
18 -23 40 -7 30 6 -3 10 1 10 10 0 13 -4 14 -20 5 -11 -6 -20 -7 -19 -3 3 20
-2 25 -15 14 -11 -9 -15 -8 -20 4 -3 9 -2 14 2 11 4 -2 8 4 8 15 0 10 -4 19
-8 19 -4 0 -8 -6 -8 -13 0 -7 -9 -18 -20 -25 -12 -7 -20 -8 -20 -2 0 5 5 10
10 10 6 0 10 4 10 9 0 16 -35 6 -43 -13 -6 -15 -10 -16 -22 -6 -20 17 -19 27
5 33 13 3 18 10 14 21 -3 9 -11 13 -16 10 -6 -4 -5 -10 3 -16 13 -9 -23 -7
-61 3 -9 3 -16 -5 -18 -19 -3 -22 -23 -28 -24 -7 0 6 -5 16 -11 23 -8 10 -7
16 2 21 9 6 7 10 -8 14 -12 3 -19 2 -17 -2 3 -4 1 -12 -3 -19 -5 -8 -16 -9
-41 -2 -25 7 -36 6 -43 -3 -6 -9 -7 -8 -4 3 2 8 14 15 26 14 15 0 20 4 16 14
-3 8 0 21 6 28 10 12 9 13 -5 8 -9 -3 -16 -10 -16 -15 0 -4 -10 -14 -22 -20
-13 -6 -20 -8 -16 -4 4 5 2 15 -5 23 -10 13 -9 15 6 9 11 -4 16 -3 12 3 -3 6
-17 7 -31 4 -19 -5 -24 -2 -24 12 0 16 -2 15 -20 -4 -24 -26 -32 -28 -24 -7 7
17 -7 20 -22 5 -6 -6 -10 -3 -11 10 -1 13 3 17 13 13 8 -3 14 -1 14 5 0 11
-25 10 -36 -1 -4 -4 -12 -7 -17 -7 -6 0 -8 3 -4 6 3 4 0 13 -8 21 -12 12 -18
9 -45 -18 -16 -18 -30 -27 -30 -21 0 7 9 17 20 24 11 7 20 18 20 25 0 15 -16
17 -25 3 -9 -15 -25 -12 -19 3 3 8 -2 14 -10 14 -8 0 -13 -8 -11 -19 2 -10 0
-18 -6 -18 -5 0 -9 5 -9 10 0 6 -6 10 -14 10 -8 0 -17 6 -19 13 -3 6 -6 3 -6
-7 -1 -11 -4 -16 -8 -13 -3 4 -13 1 -22 -5 -11 -8 -10 -5 3 9 10 12 16 28 13
35 -4 8 -6 7 -6 -4 -1 -10 -6 -18 -12 -18 -6 0 -8 8 -4 19 3 11 1 22 -4 26 -7
4 -8 -1 -4 -12 6 -16 5 -16 -10 -4 -9 7 -15 17 -12 20 2 4 -2 8 -10 8 -8 0
-15 -4 -15 -9z m104 -82 c-6 -17 -34 -30 -34 -16 0 5 8 14 18 19 22 13 22 13
16 -3z m101 -46 c-3 -5 -11 -10 -16 -10 -6 0 -7 5 -4 10 3 6 11 10 16 10 6 0
7 -4 4 -10z m315 -80 c0 -5 -5 -10 -11 -10 -5 0 -7 5 -4 10 3 6 8 10 11 10 2
0 4 -4 4 -10z m70 -11 c0 -6 -4 -7 -10 -4 -5 3 -10 11 -10 16 0 6 5 7 10 4 6
-3 10 -11 10 -16z m130 -59 c0 -5 -2 -10 -4 -10 -3 0 -8 5 -11 10 -3 6 -1 10
4 10 6 0 11 -4 11 -10z"/>
<path d="M6550 2979 c0 -11 5 -17 10 -14 6 3 10 13 10 21 0 8 -4 14 -10 14 -5
0 -10 -9 -10 -21z"/>
<path d="M6587 2979 c7 -7 15 -10 18 -7 3 3 -2 9 -12 12 -14 6 -15 5 -6 -5z"/>
<path d="M6420 2962 c0 -4 4 -13 9 -21 7 -11 11 -10 19 6 9 15 7 19 -9 20 -10
1 -19 -1 -19 -5z"/>
<path d="M5706 2905 c-3 -8 -1 -15 3 -15 5 0 11 7 15 15 3 8 1 15 -3 15 -5 0
-11 -7 -15 -15z"/>
<path d="M6840 2900 c-9 -6 -10 -10 -3 -10 6 0 15 5 18 10 8 12 4 12 -15 0z"/>
<path d="M5725 2860 c-3 -6 1 -7 9 -4 18 7 21 14 7 14 -6 0 -13 -4 -16 -10z"/>
<path d="M6925 2810 c3 -5 8 -10 11 -10 2 0 4 5 4 10 0 6 -5 10 -11 10 -5 0
-7 -4 -4 -10z"/>
<path d="M7050 2809 c0 -5 5 -7 10 -4 6 3 10 8 10 11 0 2 -4 4 -10 4 -5 0 -10
-5 -10 -11z"/>
<path d="M7230 2579 l-25 -20 33 16 c17 8 32 18 32 20 0 10 -16 4 -40 -16z"/>
<path d="M2480 2500 c0 -8 15 -39 33 -69 17 -29 37 -63 43 -73 7 -11 18 -25
25 -31 12 -10 12 -9 2 3 -7 7 -13 21 -13 30 0 9 -9 25 -20 35 -11 10 -22 27
-26 38 -10 32 -44 84 -44 67z"/>
<path d="M2630 2276 c0 -2 7 -9 15 -16 9 -7 15 -8 15 -2 0 5 -7 12 -15 16 -8
3 -15 4 -15 2z"/>
</g>
</svg>
