<?xml version="1.0" standalone="no"?>
<!DOCTYPE svg PUBLIC "-//W3C//DTD SVG 20010904//EN"
 "http://www.w3.org/TR/2001/REC-SVG-20010904/DTD/svg10.dtd">
<svg version="1.0" xmlns="http://www.w3.org/2000/svg"
 width="1024.000000pt" height="1024.000000pt" viewBox="0 0 1024.000000 1024.000000"
 preserveAspectRatio="xMidYMid meet">

<g transform="translate(0.000000,1024.000000) scale(0.100000,-0.100000)"
fill="#000000" stroke="none">
<path d="M3375 8361 c3 -5 36 -51 74 -102 72 -95 155 -251 189 -354 89 -268
58 -606 -79 -863 -21 -41 -39 -75 -39 -77 0 -3 43 27 96 65 185 134 645 380
872 466 121 46 222 91 222 100 0 3 -9 4 -19 1 -15 -4 -45 21 -123 100 -190
194 -397 352 -582 445 -66 33 -131 68 -145 79 -31 22 -263 103 -376 130 -92
22 -98 22 -90 10z"/>
<path d="M4725 7670 c3 -5 8 -10 11 -10 2 0 4 5 4 10 0 6 -5 10 -11 10 -5 0
-7 -4 -4 -10z"/>
<path d="M4755 7640 c3 -5 11 -10 16 -10 6 0 7 5 4 10 -3 6 -11 10 -16 10 -6
0 -7 -4 -4 -10z"/>
<path d="M4756 7611 c-3 -4 6 -6 19 -3 14 2 25 6 25 8 0 8 -39 4 -44 -5z"/>
<path d="M8105 7528 c-18 -6 -209 -12 -480 -14 -247 -1 -477 -6 -511 -9 -133
-12 -732 -187 -1007 -294 -17 -7 -26 -7 -22 -1 3 6 12 10 20 10 8 0 16 4 19 8
5 8 -4 9 -89 13 -86 3 -240 -25 -229 -42 5 -8 -9 -13 -27 -11 -4 1 -15 -8 -24
-18 -10 -11 -24 -20 -31 -20 -17 0 -36 -95 -32 -159 l3 -50 150 50 c460 155
735 228 939 250 128 14 174 8 306 -40 104 -38 117 -37 270 34 63 30 138 61
165 69 60 18 255 43 391 50 l99 6 -90 -14 c-180 -28 -221 -38 -274 -62 -29
-13 -57 -24 -62 -24 -5 0 -49 -26 -98 -59 -88 -58 -201 -116 -201 -103 0 4 -4
2 -8 -3 -7 -11 -109 -58 -152 -70 -14 -4 -38 -13 -55 -20 -55 -23 -149 -55
-235 -79 -47 -13 -117 -38 -157 -55 -40 -17 -79 -31 -87 -31 -8 0 -27 -13 -43
-30 -15 -16 -31 -30 -35 -30 -19 0 -310 -189 -323 -210 -3 -6 31 6 75 25 203
87 407 129 625 129 178 -1 258 -16 386 -75 89 -41 119 -73 133 -145 l11 -57
51 49 c56 55 78 104 72 165 -3 34 -1 39 17 39 23 1 144 40 196 63 237 109 361
180 442 256 68 63 213 245 244 304 36 72 29 95 -37 128 -45 22 -258 91 -271
88 -2 0 -17 -5 -34 -11z m-857 -154 c34 -22 29 -60 -10 -84 -46 -28 -90 -26
-127 6 -50 41 -37 78 32 94 38 9 73 3 105 -16z m850 -11 c-10 -2 -28 -2 -40 0
-13 2 -5 4 17 4 22 1 32 -1 23 -4z"/>
<path d="M5785 7457 c-170 -133 -263 -265 -294 -418 -19 -93 12 -236 80 -372
26 -50 165 -247 175 -247 1 0 -8 24 -22 53 -58 128 -94 384 -75 534 19 145 79
311 158 436 14 22 23 40 21 42 -2 2 -21 -11 -43 -28z"/>
<path d="M4890 7454 c-184 -49 -496 -172 -716 -282 -365 -183 -694 -429 -895
-670 -143 -172 -309 -436 -262 -418 282 109 782 237 1093 280 158 22 414 34
548 25 94 -6 119 -11 156 -33 69 -40 153 -145 128 -160 -4 -2 -32 0 -62 5
-197 29 -641 29 -866 -1 -649 -88 -1123 -240 -1607 -517 -147 -84 -365 -238
-354 -250 3 -2 61 21 129 51 473 209 933 347 1319 396 144 18 362 13 474 -11
134 -28 188 -53 228 -102 28 -36 32 -49 32 -99 0 -46 3 -57 15 -54 8 3 51 14
95 26 43 12 86 24 95 27 9 3 11 1 5 -4 -5 -4 -21 -30 -35 -56 -17 -33 -74 -95
-174 -190 -228 -217 -368 -356 -418 -418 -55 -69 -100 -173 -127 -301 -22
-102 -39 -150 -51 -143 -10 6 -34 -23 -60 -75 -31 -60 -29 -128 9 -300 17 -78
93 -227 144 -285 30 -33 72 -123 107 -230 83 -255 201 -454 369 -620 l81 -80
0 55 c0 195 223 291 540 231 206 -39 358 -88 564 -181 193 -87 197 -88 214
-53 6 15 12 39 12 54 0 15 7 29 16 33 23 9 337 7 491 -3 116 -8 138 -12 177
-35 64 -37 148 -125 263 -271 144 -185 219 -271 304 -346 96 -85 234 -192 332
-258 85 -57 244 -137 253 -128 4 3 -19 44 -50 90 -198 298 -273 558 -283 987
-5 187 -2 234 16 360 26 175 41 235 86 354 87 233 248 510 407 703 35 41 77
94 94 117 107 143 529 538 760 713 l29 22 -40 -11 c-109 -28 -343 -138 -430
-202 -16 -12 -64 -41 -105 -65 -41 -24 -102 -65 -135 -90 -72 -56 -152 -112
-305 -216 -63 -42 -153 -109 -200 -148 -126 -104 -381 -368 -467 -482 -42 -55
-99 -129 -128 -165 -28 -36 -78 -103 -110 -150 -182 -263 -223 -302 -353 -345
-29 -9 -62 -26 -72 -37 -18 -19 -23 -20 -102 -9 -132 19 -325 76 -500 147
-128 51 -425 199 -508 252 -99 63 -223 165 -325 267 -111 112 -202 251 -249
383 -50 140 -40 139 -133 15 -45 -59 -90 -124 -102 -144 -11 -19 -40 -55 -64
-80 -23 -25 -58 -72 -76 -105 -58 -101 -119 -185 -124 -170 -9 23 21 235 44
311 12 38 30 82 40 96 10 15 19 29 19 32 0 6 70 160 103 227 60 122 237 302
366 371 17 9 50 32 74 52 24 20 70 50 103 67 32 17 77 42 99 55 48 28 176 92
260 130 33 14 67 30 75 36 20 12 140 70 165 80 11 4 56 24 100 44 44 21 130
57 190 82 61 24 175 77 255 117 80 40 172 83 205 95 33 13 94 38 135 57 41 18
129 52 195 74 66 23 156 60 200 82 44 23 134 69 200 103 200 102 255 135 378
227 65 48 126 92 137 98 23 12 34 43 25 70 -13 41 -139 83 -255 84 -52 1 -75
-4 -115 -25 -61 -32 -269 -102 -350 -118 -33 -7 -71 -16 -85 -21 -14 -5 -38
-11 -55 -14 -16 -2 -64 -11 -105 -21 -41 -9 -91 -19 -110 -22 -31 -5 -93 -22
-241 -69 -26 -7 -54 -14 -62 -14 -9 0 -22 -7 -30 -15 -8 -8 -30 -17 -49 -19
-39 -5 -99 -25 -112 -37 -6 -5 -19 -9 -31 -9 -11 0 -38 -9 -60 -20 -51 -26
-68 -25 -189 6 -110 29 -120 34 -148 79 -10 17 -18 24 -18 17 0 -40 129 -198
223 -273 27 -22 46 -39 43 -39 -3 0 -47 19 -98 41 -87 40 -95 41 -133 30 -22
-6 -47 -13 -55 -14 -8 -2 -35 -9 -60 -16 -97 -27 -117 -31 -175 -35 -40 -2
-75 -11 -107 -29 l-48 -25 25 32 c13 17 36 58 51 90 39 86 32 140 -38 291
-129 277 -133 492 -15 766 19 43 33 79 31 79 -2 0 -15 -20 -30 -45 -14 -25
-27 -45 -27 -45 -1 0 -3 47 -4 105 -1 58 2 105 5 105 4 0 7 19 7 43 0 31 5 45
20 54 27 16 5 15 -65 -3z m-184 -3790 c82 -54 242 -137 337 -176 29 -11 131
-47 227 -80 170 -57 173 -60 41 -42 -54 7 -81 15 -156 44 -38 16 -95 35 -125
44 -30 9 -61 22 -70 30 -8 7 -53 28 -100 46 -47 18 -92 39 -100 45 -8 7 -25
16 -37 19 -13 4 -23 11 -23 15 0 4 -22 22 -49 39 -68 44 -164 141 -157 158 3
8 1 14 -4 14 -6 0 -10 5 -10 10 0 6 32 -17 72 -51 40 -34 109 -86 154 -115z
m1642 -269 c70 -13 182 -35 250 -49 68 -14 133 -26 145 -27 60 -2 -49 -19
-194 -30 -161 -12 -376 -2 -430 20 -13 5 -18 10 -11 10 15 1 16 21 0 21 -18 0
-88 33 -88 42 0 4 12 8 28 8 27 0 70 20 45 20 -7 0 -13 4 -13 9 0 15 126 3
268 -24z m-871 -51 c-3 -3 -12 -4 -19 -1 -8 3 -5 6 6 6 11 1 17 -2 13 -5z"/>
<path d="M5510 7409 c-19 -12 -69 -56 -111 -98 -84 -85 -139 -180 -159 -278
-26 -124 5 -301 73 -413 24 -41 143 -197 156 -204 5 -3 -2 20 -14 52 -64 158
-89 371 -64 549 12 91 70 273 103 323 69 106 67 100 16 69z"/>
<path d="M5170 7283 c-91 -94 -135 -165 -170 -277 -39 -120 -18 -280 55 -426
25 -50 193 -277 180 -245 -56 150 -100 319 -110 430 -13 139 25 330 104 514
17 41 30 78 28 84 -1 5 -41 -31 -87 -80z"/>
<path d="M3530 5753 c-95 -8 -371 -55 -499 -86 l-134 -32 6 -151 c9 -204 26
-347 43 -357 9 -5 12 -17 8 -34 -4 -14 -2 -28 4 -32 17 -10 39 -134 25 -138
-27 -9 12 -142 109 -371 64 -151 182 -342 278 -452 l30 -35 -20 50 c-52 124
-90 317 -90 459 0 331 125 632 362 869 85 85 146 120 249 141 50 10 64 17 71
36 14 39 -9 80 -58 101 -66 30 -237 44 -384 32z"/>
<path d="M6115 5575 c-93 -45 -307 -143 -595 -271 -129 -58 -246 -110 -260
-116 -23 -11 -19 -12 42 -19 37 -4 116 -19 175 -34 146 -36 377 -123 394 -147
3 -5 15 -10 27 -11 11 0 18 -5 16 -9 -3 -4 -1 -8 5 -8 5 0 16 -3 25 -6 10 -4
16 -1 16 8 0 32 97 50 153 29 13 -5 51 -32 85 -60 34 -28 65 -51 70 -51 15 0
62 -62 55 -73 -3 -6 -1 -7 5 -3 6 3 18 -1 26 -10 9 -8 16 -13 16 -11 0 8 91
-87 101 -105 6 -10 7 -23 4 -28 -4 -6 -3 -19 0 -30 5 -14 19 -21 55 -26 50 -7
71 -25 83 -69 4 -18 5 -18 6 -2 1 23 -38 178 -48 192 -5 6 -11 23 -15 38 -7
31 -131 351 -219 567 -82 202 -124 290 -139 289 -7 0 -44 -16 -83 -34z"/>
<path d="M6280 4726 c0 -2 7 -7 16 -10 8 -3 12 -2 9 4 -6 10 -25 14 -25 6z"/>
<path d="M5090 3977 c0 -7 114 -79 190 -120 51 -28 293 -137 304 -137 1 0 1
14 -2 31 -4 24 2 37 29 65 18 18 52 41 76 50 48 18 55 31 21 38 -13 3 -35 7
-51 11 -15 3 -109 12 -210 20 -213 18 -333 32 -347 40 -6 3 -10 4 -10 2z"/>
</g>
</svg>
